{
    "asset" : {
        "generator" : "Khronos glTF Blender I/O v1.2.75",
        "version" : "2.0"
    },
    "scene" : 0,
    "scenes" : [
        {
            "name" : "Scene",
            "nodes" : [
                0
            ]
        }
    ],
    "nodes" : [
        {
            "mesh" : 0,
            "name" : "tucson-15_exterior_varnish_0",
            "rotation" : [
                -0.7071068286895752,
                0,
                0,
                0.7071068286895752
            ]
        }
    ],
    "materials" : [
        {
            "doubleSided" : true,
            "emissiveFactor" : [
                0,
                0,
                0
            ],
            "name" : "varnish",
            "pbrMetallicRoughness" : {
                "baseColorFactor" : [
                    0.07593079656362534,
                    0.24575500190258026,
                    0.5466799736022949,
                    1
                ],
                "metallicFactor" : 0,
                "roughnessFactor" : 0.823941707611084
            }
        }
    ],
    "meshes" : [
        {
            "name" : "tucson-15_exterior_varnish_0",
            "primitives" : [
                {
                    "attributes" : {
                        "POSITION" : 0,
                        "NORMAL" : 1
                    },
                    "indices" : 2,
                    "material" : 0
                }
            ]
        }
    ],
    "accessors" : [
        {
            "bufferView" : 0,
            "componentType" : 5126,
            "count" : 4015,
            "max" : [
                103.9742431640625,
                226.23843383789062,
                163.21243286132812
            ],
            "min" : [
                -103.9742431640625,
                -226.5416717529297,
                37.01465606689453
            ],
            "type" : "VEC3"
        },
        {
            "bufferView" : 1,
            "componentType" : 5126,
            "count" : 4015,
            "type" : "VEC3"
        },
        {
            "bufferView" : 2,
            "componentType" : 5123,
            "count" : 14316,
            "type" : "SCALAR"
        }
    ],
    "bufferViews" : [
        {
            "buffer" : 0,
            "byteLength" : 48180,
            "byteOffset" : 0
        },
        {
            "buffer" : 0,
            "byteLength" : 48180,
            "byteOffset" : 48180
        },
        {
            "buffer" : 0,
            "byteLength" : 28632,
            "byteOffset" : 96360
        }
    ],
    "buffers" : [
        {
            "byteLength" : 124992,
            "uri" : "data:application/octet-stream;base64,"
        }
    ]
}
